# xmcd
# 
# Track frame offsets:
#     182
#     13015
#     42542
#     55137
#     78680
#     91187
#     108127
#     125140
#     139612
#     154967
#     165797
#     175967
#     188350
#     200990
#     217147
#     232420
#     246665
#     258587
#     271677
#     284280
#     297170
# 
# Disc length: 4124
# 
# Revision: 1
# Processed by: cddbd v1.5.2PL0 Copyright (c) Steve Scherf et al.
# Submitted via: fre:ac v1.0.27
# 
DISCID=3f101a15
DTITLE=Elis Regina - A Arte de Elis Regina
DYEAR=0
DGENRE=Samba
TTITLE0=Reza
TTITLE1=O morro não tem vez  - Feio não é bonito  - Samba do Carioca  - Esse mundo é meu  - A felicidade  - Samba de negro  - Vou Andar Por Aí  - O Sol Nascerá  - Diz Que Fui Por Aí  - Acender As Velas  - A Voz Do Morro  - O Morro Não Tem Vez
TTITLE2=Arrastão
TTITLE3=Zambi
TTITLE4=Tristeza que se foi
TTITLE5=Louvação
TTITLE6=Pra dizer adeus
TTITLE7=Lunik 9
TTITLE8=Aquarela do Brasil  - Nêga do cabelo duro
TTITLE9=Upa neguinho
TTITLE10=Corrida de jangada
TTITLE11=Vera Cruz
TTITLE12=Casa forte
TTITLE13=As curvas da estrada de Santos
TTITLE14=Vou deitar e rolar
TTITLE15=Ih! Meu Deus do Céu
TTITLE16=Madalena
TTITLE17=Águas de março
TTITLE18=Atrás da porta
TTITLE19=Casa no campo
TTITLE20=É com esse que eu vou
EXTD=
EXTT0=
EXTT1=
EXTT2=
EXTT3=
EXTT4=
EXTT5=
EXTT6=
EXTT7=
EXTT8=
EXTT9=
EXTT10=
EXTT11=
EXTT12=
EXTT13=
EXTT14=
EXTT15=
EXTT16=
EXTT17=
EXTT18=
EXTT19=
EXTT20=
PLAYORDER=
